PathFileType	4	(X/Y/Z)																																																																																																																																																																																															
DataRate	CameraRate	NumFrames	NumMarkers	Units	OrigDataRate	OrigDataStartFrame	OrigNumFrames																																																																																																																																																																																										
100	100	4	64	     mm	100	298	397																																																																																																																																																																																										
Frame#	Time	LASI			RASI			LPSI			RPSI			RTH2			RTH3			RLFC			RMFC			LTH1			LTH2			LTH3			LLFC			LMFC			RTB1			RTB2			RTB3			RLMAL			RMMAL			LTB1			LTB2			LTB3			LLMAL			LMMAL			RCAL			RTOE			RMT5			LCAL			LTOE			LMT5			LACR			RACR			CLAV			C7			LASH			LPSH			RASH			RPSH			RUA1			RUA2			RUA3			RLEL			RMEL			LUA1			LUA2			LUA3			LLEL			LMEL			RFAsuperior			RFAradius			RFAulna			LFAsuperior			LFAradius			LFAulna			RTH1			RHJC			LHJC			RKJC			LKJC			RAJC			LAJC			RSJC			LSJC			REJC			LEJC		
		X1	Y1	Z1	X2	Y2	Z2	X3	Y3	Z3	X4	Y4	Z4	X5	Y5	Z5	X6	Y6	Z6	X7	Y7	Z7	X8	Y8	Z8	X9	Y9	Z9	X10	Y10	Z10	X11	Y11	Z11	X12	Y12	Z12	X13	Y13	Z13	X14	Y14	Z14	X15	Y15	Z15	X16	Y16	Z16	X17	Y17	Z17	X18	Y18	Z18	X19	Y19	Z19	X20	Y20	Z20	X21	Y21	Z21	X22	Y22	Z22	X23	Y23	Z23	X24	Y24	Z24	X25	Y25	Z25	X26	Y26	Z26	X27	Y27	Z27	X28	Y28	Z28	X29	Y29	Z29	X30	Y30	Z30	X31	Y31	Z31	X32	Y32	Z32	X33	Y33	Z33	X34	Y34	Z34	X35	Y35	Z35	X36	Y36	Z36	X37	Y37	Z37	X38	Y38	Z38	X39	Y39	Z39	X40	Y40	Z40	X41	Y41	Z41	X42	Y42	Z42	X43	Y43	Z43	X44	Y44	Z44	X45	Y45	Z45	X46	Y46	Z46	X47	Y47	Z47	X48	Y48	Z48	X49	Y49	Z49	X50	Y50	Z50	X51	Y51	Z51	X52	Y52	Z52	X53	Y53	Z53	X54	Y54	Z54	X55	Y55	Z55	X56	Y56	Z56	X57	Y57	Z57	X58	Y58	Z58	X59	Y59	Z59	X60	Y60	Z60	X61	Y61	Z61	X62	Y62	Z62	X63	Y63	Z63	X64	Y64	Z64
																																																																																																																																																																																																	
298	2.97	628.45966	1083.3916	-366.43332	374.19595	1075.98096	-366.2626	559.27863	1126.05054	-529.37311	445.7609	1118.91016	-530.14887	341.08041	819.90845	-506.88193	333.28418	666.12915	-476.96106	334.93957	561.70886	-471.58542	449.92615	537.02905	-457.96533	689.91992	956.14294	-424.80188	659.0379	805.5882	-509.00418	674.68457	670.06628	-469.01175	671.69403	551.44537	-456.98325	561.88794	520.03381	-473.88553	374.17242	405.90198	-436.1214	318.38095	369.76251	-525.65033	379.36954	220.12199	-471.54041	331.84351	119.28189	-529.0846	421.28067	129.98627	-504.66043	640.08221	440.87036	-425.7919	689.63434	341.83853	-516.39569	648.34131	227.92041	-455.64996	680.37976	124.61499	-507.86807	593.4743	130.87697	-490.96841	388.96848	97.13002	-596.98065	373.8378	76.18523	-352.50803	287.71127	52.72527	-412.87817	619.0047	97.55675	-579.89581	645.48004	79.16537	-343.67319	735.34589	43.68944	-403.83798	632.64032	1576.69495	-499.53772	339.97357	1564.70435	-475.87412	458.2149	1528.70679	-414.9043	494.88898	1580.05176	-539.40741	645.71497	1543.89063	-436.67429	660.2713	1512.9895	-556.40314	328.74957	1526.74231	-422.0831	320.35437	1495.49304	-557.96533	243.49674	1466.80542	-536.16248	183.74646	1475.23425	-483.41632	100.0779	1417.41797	-507.98276	40.85759	1378.7937	-516.48132	79.85844	1319.80701	-468.11432	731.37689	1488.16064	-542.67395	807.69391	1494.98462	-496.84497	884.8244	1449.27283	-523.19263	955.89514	1429.8999	-513.57105	921.12799	1349.08923	-492.4184	-26.85091	1388.55957	-430.33078	-55.85608	1362.2312	-254.03275	-115.30521	1357.11939	-291.00504	1011.89465	1414.79993	-445.96939	1018.52954	1363.66467	-260.83658	1087.20276	1375.65173	-278.46957	305.60741	957.37696	-419.09607	411.52557	977.33434	-441.16944	586.71607	1001.14771	-449.43607	392.43286	549.36896	-464.77538	616.79098	535.73959	-465.43439	376.56209	124.63408	-516.87251	636.92703	127.74598	-499.41824	324.55197	1511.11768	-490.02422	652.99313	1528.44006	-496.53871	60.35801	1349.30035	-492.29782	938.51157	1389.49457	-502.99472
299	2.98	628.47296	1083.4281	-366.58591	374.20807	1076.03967	-366.32178	559.27411	1126.04187	-529.4433	445.76895	1118.83826	-530.30286	341.04785	819.88953	-506.90903	333.25256	666.16382	-476.82434	334.96118	561.71851	-471.48764	449.9259	537.11407	-457.84174	689.92822	956.14594	-424.9111	659.0235	805.59149	-509.02799	674.67462	670.06927	-469.04047	671.70355	551.41248	-456.96506	561.82416	520.08337	-473.83704	374.21109	405.88946	-436.05469	318.39664	369.78043	-525.58813	379.36017	220.10904	-471.48389	331.81079	119.27734	-529.06769	421.26907	129.96616	-504.66717	640.08307	440.87335	-425.79132	689.62317	341.84219	-516.38495	648.33295	227.91844	-455.60642	680.37024	124.61443	-507.86664	593.45874	130.86433	-491.00043	388.96866	97.12991	-596.98053	373.82611	76.1487	-352.50217	287.74692	52.74223	-412.896	619.00415	97.55685	-579.89526	645.48608	79.17548	-343.67358	735.34595	43.68945	-403.83814	632.63892	1576.64087	-499.68369	339.89123	1564.58411	-476.13693	458.25189	1528.66931	-415.18137	494.89639	1580.07153	-539.51166	645.72034	1543.87756	-436.61939	660.25366	1513.02771	-556.49249	328.75494	1526.73401	-422.16806	320.34601	1495.51416	-558.06256	243.46613	1466.83447	-536.21417	183.70653	1475.28467	-483.41977	100.06665	1417.45105	-507.99765	40.82103	1378.81848	-516.5404	79.82931	1319.828	-468.15384	731.34381	1488.18298	-542.81293	807.69134	1495.00366	-496.94672	884.8169	1449.32031	-523.31018	955.88733	1429.92822	-513.70435	921.10388	1349.11243	-492.54294	-26.86206	1388.57886	-430.33954	-55.90589	1362.23315	-253.98041	-115.37824	1357.15576	-290.94797	1011.87018	1414.82935	-446.10046	1018.50195	1363.6908	-260.96719	1087.21741	1375.63904	-278.63687	305.59674	957.42636	-419.11328	411.51518	977.35636	-441.20807	586.70772	1001.13889	-449.50545	392.44354	549.41629	-464.66469	616.76385	535.74793	-465.40105	376.53993	124.62175	-516.86743	636.91449	127.73938	-499.43353	324.55048	1511.12408	-490.11531	652.987	1528.45264	-496.55594	60.32517	1349.32324	-492.34712	938.49561	1389.52033	-503.12364
300	2.99	628.51929	1083.43457	-366.71258	374.27353	1076.0813	-366.42044	559.2265	1126.02136	-529.54413	445.72095	1118.83435	-530.32452	341.00381	819.88135	-506.89655	333.26544	666.17181	-476.7468	334.91653	561.82501	-471.37946	449.92239	537.18445	-457.68008	689.95074	956.14337	-425.06012	658.9798	805.57813	-509.08478	674.67462	670.06934	-469.04092	671.69342	551.43573	-456.95776	561.8186	520.08392	-473.8869	374.15283	405.86057	-435.98407	318.30386	369.7167	-525.4209	379.34601	220.08534	-471.48764	331.83551	119.28555	-529.05109	421.27066	129.9926	-504.66006	640.08173	440.86731	-425.77246	689.6319	341.82266	-516.35687	648.34308	227.89824	-455.65506	680.36883	124.63	-507.85779	593.45349	130.86391	-490.99921	388.9516	97.11468	-596.96497	373.87378	76.17919	-352.50214	287.70316	52.70873	-412.90591	619.0044	97.5568	-579.89551	645.48413	79.1789	-343.67987	735.34076	43.69694	-403.86121	632.61938	1576.66907	-499.84857	339.92859	1564.73511	-476.04013	458.18899	1528.73633	-415.07419	494.84015	1580.06751	-539.57648	645.75336	1543.87317	-436.82886	660.25384	1513.05518	-556.62744	328.69687	1526.79785	-422.20639	320.28168	1495.45886	-558.1369	243.39857	1466.88001	-536.2511	183.70146	1475.31152	-483.46719	100.00401	1417.46643	-508.02078	40.81221	1378.87329	-516.56873	79.79672	1319.82898	-468.17523	731.31207	1488.21741	-542.83655	807.69824	1495.03198	-497.09012	884.76062	1449.40356	-523.1654	955.87006	1429.96106	-513.84412	921.09821	1349.15369	-492.68558	-26.88357	1388.60461	-430.35553	-55.92034	1362.27014	-254.00035	-115.40087	1357.17798	-290.90546	1011.86163	1414.87793	-446.23166	1018.46979	1363.68091	-261.10104	1087.19324	1375.68274	-278.71097	305.61782	957.4373	-419.06744	411.52311	977.36466	-441.23172	586.71178	1001.14647	-449.64283	392.41946	549.50473	-464.52977	616.75601	535.75983	-465.42233	376.55309	124.63908	-516.85558	636.91116	127.74695	-499.4285	324.48927	1511.12836	-490.17165	653.0036	1528.46417	-496.72815	60.30446	1349.35113	-492.37198	938.48413	1389.55737	-503.26485
301	3	628.52978	1083.49341	-366.89023	374.30518	1076.08423	-366.51245	559.16205	1126.00794	-529.60455	445.68985	1118.81421	-530.46039	340.96014	819.87903	-506.8468	333.24292	666.22253	-476.66922	334.92416	561.8158	-471.28015	449.93893	537.25714	-457.58426	689.94409	956.15454	-425.13864	658.95703	805.54065	-509.11697	674.67462	670.06934	-469.04071	671.68829	551.40808	-456.92578	561.99036	519.99316	-473.33932	374.24542	405.8461	-435.81409	318.31827	369.73126	-525.3681	379.33325	220.09467	-471.48007	331.83319	119.28911	-529.05286	421.26563	129.96816	-504.6413	640.09662	440.85193	-425.73215	689.60889	341.82138	-516.34161	648.32977	227.92174	-455.65228	680.36169	124.66068	-507.83929	593.45825	130.86461	-491.00195	388.96823	97.1299	-596.98029	373.84454	76.18588	-352.48923	287.74622	52.70311	-412.92087	619.02515	97.53343	-579.91699	645.51129	79.16135	-343.67725	735.34595	43.68948	-403.83838	632.59009	1576.67847	-499.93753	339.89355	1564.63196	-476.20841	458.1745	1528.76062	-415.23245	494.80951	1580.10706	-539.59839	645.6557	1543.84961	-437.02725	660.20538	1513.10547	-556.68903	328.7319	1526.76868	-422.26923	320.23733	1495.56287	-558.13129	243.38425	1466.88672	-536.29395	183.66339	1475.28601	-483.52304	99.96796	1417.49487	-508.0098	40.76172	1378.87634	-516.56073	79.76464	1319.88525	-468.15442	731.30463	1488.2771	-542.95642	807.67548	1495.0686	-497.19336	884.82929	1449.37378	-523.58386	955.84467	1430.03955	-513.85333	921.0448	1349.22412	-492.79532	-26.90488	1388.61987	-430.39667	-55.88379	1362.27881	-254.02269	-115.37499	1357.16699	-290.93619	1011.85907	1414.93298	-446.36206	1018.45679	1363.77087	-261.19006	1087.17529	1375.71277	-278.83084	305.64798	957.40757	-419.0896	411.54076	977.35443	-441.29633	586.721	1001.17469	-449.77565	392.43155	549.53647	-464.4322	616.83932	535.70062	-465.13255	376.54941	124.62863	-516.84708	636.90997	127.76264	-499.42062	324.48462	1511.16577	-490.20026	652.93054	1528.47754	-496.85814	60.26318	1349.3808	-492.35757	938.44473	1389.63184	-503.32433
